HIERARCHY
ROOT pelvis
{
  OFFSET 0 100 0
  CHANNELS 6 Xposition Yposition Zposition Zrotation Xrotation Yrotation
  JOINT pelvis_right_femur
  {
    OFFSET -10.78128 -3.44521 -0.5502486
    CHANNELS 3 Zrotation Xrotation Yrotation
    JOINT right_femur_tibia
    {
      OFFSET -0.8047443 -44.0398 -0.1307829
      CHANNELS 3 Zrotation Xrotation Yrotation
      JOINT right_tibia_foot
      {
        OFFSET 3.006224 -47.83518 -5
        CHANNELS 3 Zrotation Xrotation Yrotation
        End Site
        {
          OFFSET 0 -5 15
        }
      }
    }
  }
  JOINT pelvis_left_femur
  {
    OFFSET 10.78128 -3.44521 -0.5502486
    CHANNELS 3 Zrotation Xrotation Yrotation
    JOINT left_femur_tibia
    {
      OFFSET 0.8047443 -44.0398 -0.1307829
      CHANNELS 3 Zrotation Xrotation Yrotation
      JOINT left_tibia_foot
      {
        OFFSET -4.370144 -48.10324 -4.275266
        CHANNELS 3 Zrotation Xrotation Yrotation
        End Site
        {
          OFFSET 0 -5 15
        }
      }
    }
  }
  JOINT pelvis_spine1
  {
    OFFSET 0 6.468898 -3.129235
    CHANNELS 3 Zrotation Xrotation Yrotation
    JOINT spine1
    {
      OFFSET 0 23.15396 4.99043
      CHANNELS 3 Zrotation Xrotation Yrotation
      JOINT spine2
      {
        OFFSET 0 20.79997 -5.064912
        CHANNELS 3 Zrotation Xrotation Yrotation
        JOINT neck
        {
          OFFSET 0 14.38658 9.616178
          CHANNELS 3 Zrotation Xrotation Yrotation
          End Site
          {
            OFFSET 0 20 0
          }
        }
      }
      JOINT right_manubrium
      {
        OFFSET -5.722621 16.35077 3.967754
        CHANNELS 3 Zrotation Xrotation Yrotation
        JOINT right_clavicle
        {
          OFFSET -13.16364 1.694482 -4.693211
          CHANNELS 3 Zrotation Xrotation Yrotation
          JOINT right_humerus
          {
            OFFSET -28.5034 -0.3100689 -2.792744
            CHANNELS 3 Zrotation Xrotation Yrotation
            JOINT right_radius
            {
              OFFSET -25.15693 0.02248979 -1.271978
              CHANNELS 3 Zrotation Xrotation Yrotation
              End Site
              {
                OFFSET -15 0 0
              }
            }
          }
        }
      }
      JOINT left_manubrium
      {
        OFFSET 5.722621 16.35077 3.967754
        CHANNELS 3 Zrotation Xrotation Yrotation
        JOINT left_clavicle
        {
          OFFSET 13.16364 1.694482 -4.693211
          CHANNELS 3 Zrotation Xrotation Yrotation
          JOINT left_humerus
          {
            OFFSET 29.39168 -1.063119 -2.237045
            CHANNELS 3 Zrotation Xrotation Yrotation
            JOINT left_radius
            {
              OFFSET 24.59957 -0.9528479 0.9047498
              CHANNELS 3 Zrotation Xrotation Yrotation
              End Site
              {
                OFFSET 15 -0 -0
              }
            }
          }
        }
      }
    }
  }
}
MOTION
Frames: 13
Frame Time: 0.0416666666667
-776.3217 109.9978 -504.799 11.81736 1.180575 103.3904 5.32106 16.84609 -1.990608 -0 22.1484 -0 -10.96173 -13.61896 -3.792455 -0.6248795 -8.470367 -10.84572 -0 11.99643 -0 -10.24329 -10.14093 21.05731 0.9150034 1.889845 1.608667 0.2872337 5.147578 -1.302199 3.912578 27.66156 3.008267 -0.390505 -17.9726 8.910164 -6.616335 -20.0702 7.190727 89.40444 12.60922 -4.116704 -0 0 18.50666 -18.8715 4.3781 11.97615 4.916687 -12.20653 -1.958025 -100.3849 29.10927 26.0812 -0 0 5.229838 -3.610318 16.46206 15.26036
-770.6188 109.9848 -506.2515 11.82772 1.070212 102.8631 5.32106 16.84609 -1.990608 -0 22.1484 -0 -10.96173 -13.61896 -3.792455 -0.6248795 -8.470367 -10.84572 -0 11.99643 -0 -10.24329 -10.14093 21.05731 0.9150034 1.889845 1.608667 0.2872337 5.147578 -1.302199 3.912578 27.66156 3.008267 -0.390505 -17.9726 8.910164 -6.616335 -20.0702 7.190727 89.40444 12.60922 -4.116704 -0 0 18.50666 -18.8715 4.3781 11.97615 4.916687 -12.20653 -1.958025 -100.3849 29.10927 26.0812 -0 0 5.229838 -3.610318 16.46206 15.26036
-764.9025 109.9718 -507.6503 11.83706 0.9597577 102.3358 5.32106 16.84609 -1.990608 -0 22.1484 -0 -10.96173 -13.61896 -3.792455 -0.6248795 -8.470367 -10.84572 -0 11.99643 -0 -10.24329 -10.14093 21.05731 0.9150034 1.889845 1.608667 0.2872337 5.147578 -1.302199 3.912578 27.66156 3.008267 -0.390505 -17.9726 8.910164 -6.616335 -20.0702 7.190727 89.40444 12.60922 -4.116704 -0 0 18.50666 -18.8715 4.3781 11.97615 4.916687 -12.20653 -1.958025 -100.3849 29.10927 26.0812 -0 0 5.229838 -3.610318 16.46206 15.26036
-759.1733 109.9588 -508.9953 11.84538 0.8492222 101.8085 5.32106 16.84609 -1.990608 -0 22.1484 -0 -10.96173 -13.61896 -3.792455 -0.6248795 -8.470367 -10.84572 -0 11.99643 -0 -10.24329 -10.14093 21.05731 0.9150034 1.889845 1.608667 0.2872337 5.147578 -1.302199 3.912578 27.66156 3.008267 -0.390505 -17.9726 8.910164 -6.616335 -20.0702 7.190727 89.40444 12.60922 -4.116704 -0 0 18.50666 -18.8715 4.3781 11.97615 4.916687 -12.20653 -1.958025 -100.3849 29.10927 26.0812 -0 0 5.229838 -3.610318 16.46206 15.26036
-753.4317 109.9458 -510.2864 11.85269 0.7386149 101.2812 5.32106 16.84609 -1.990608 -0 22.1484 -0 -10.96173 -13.61896 -3.792455 -0.6248795 -8.470367 -10.84572 -0 11.99643 -0 -10.24329 -10.14093 21.05731 0.9150034 1.889845 1.608667 0.2872337 5.147578 -1.302199 3.912578 27.66156 3.008267 -0.390505 -17.9726 8.910164 -6.616335 -20.0702 7.190727 89.40444 12.60922 -4.116704 -0 0 18.50666 -18.8715 4.3781 11.97615 4.916687 -12.20653 -1.958025 -100.3849 29.10927 26.0812 -0 0 5.229838 -3.610318 16.46206 15.26036
-747.6783 109.9328 -511.5234 11.85897 0.627945 100.754 5.32106 16.84609 -1.990608 -0 22.1484 -0 -10.96173 -13.61896 -3.792455 -0.6248795 -8.470367 -10.84572 -0 11.99643 -0 -10.24329 -10.14093 21.05731 0.9150034 1.889845 1.608667 0.2872337 5.147578 -1.302199 3.912578 27.66156 3.008267 -0.390505 -17.9726 8.910164 -6.616335 -20.0702 7.190727 89.40444 12.60922 -4.116704 -0 0 18.50666 -18.8715 4.3781 11.97615 4.916687 -12.20653 -1.958025 -100.3849 29.10927 26.0812 -0 0 5.229838 -3.610318 16.46206 15.26036
-741.9135 109.9198 -512.7064 11.86424 0.5172219 100.2268 5.32106 16.84609 -1.990608 -0 22.1484 -0 -10.96173 -13.61896 -3.792455 -0.6248795 -8.470367 -10.84572 -0 11.99643 -0 -10.24329 -10.14093 21.05731 0.9150034 1.889845 1.608667 0.2872337 5.147578 -1.302199 3.912578 27.66156 3.008267 -0.390505 -17.9726 8.910164 -6.616335 -20.0702 7.190727 89.40444 12.60922 -4.116704 -0 0 18.50666 -18.8715 4.3781 11.97615 4.916687 -12.20653 -1.958025 -100.3849 29.10927 26.0812 -0 0 5.229838 -3.610318 16.46206 15.26036
-736.1377 109.9068 -513.835 11.86849 0.4064551 99.69967 5.32106 16.84609 -1.990608 -0 22.1484 -0 -10.96173 -13.61896 -3.792455 -0.6248795 -8.470367 -10.84572 -0 11.99643 -0 -10.24329 -10.14093 21.05731 0.9150034 1.889845 1.608667 0.2872337 5.147578 -1.302199 3.912578 27.66156 3.008267 -0.390505 -17.9726 8.910164 -6.616335 -20.0702 7.190727 89.40444 12.60922 -4.116704 -0 0 18.50666 -18.8715 4.3781 11.97615 4.916687 -12.20653 -1.958025 -100.3849 29.10927 26.0812 -0 0 5.229838 -3.610318 16.46206 15.26036
-730.3517 109.8938 -514.9093 11.87172 0.2956539 99.17251 5.32106 16.84609 -1.990608 -0 22.1484 -0 -10.96173 -13.61896 -3.792455 -0.6248795 -8.470367 -10.84572 -0 11.99643 -0 -10.24329 -10.14093 21.05731 0.9150034 1.889845 1.608667 0.2872337 5.147578 -1.302199 3.912578 27.66156 3.008267 -0.390505 -17.9726 8.910164 -6.616335 -20.0702 7.190727 89.40444 12.60922 -4.116704 -0 0 18.50666 -18.8715 4.3781 11.97615 4.916687 -12.20653 -1.958025 -100.3849 29.10927 26.0812 -0 0 5.229838 -3.610318 16.46206 15.26036
-724.5558 109.8808 -515.9292 11.87393 0.1848276 98.64536 5.32106 16.84609 -1.990608 -0 22.1484 -0 -10.96173 -13.61896 -3.792455 -0.6248795 -8.470367 -10.84572 -0 11.99643 -0 -10.24329 -10.14093 21.05731 0.9150034 1.889845 1.608667 0.2872337 5.147578 -1.302199 3.912578 27.66156 3.008267 -0.390505 -17.9726 8.910164 -6.616335 -20.0702 7.190727 89.40444 12.60922 -4.116704 -0 0 18.50666 -18.8715 4.3781 11.97615 4.916687 -12.20653 -1.958025 -100.3849 29.10927 26.0812 -0 0 5.229838 -3.610318 16.46206 15.26036
-718.7506 109.8678 -516.8946 11.87512 0.07398568 98.11822 5.32106 16.84609 -1.990608 -0 22.1484 -0 -10.96173 -13.61896 -3.792455 -0.6248795 -8.470367 -10.84572 -0 11.99643 -0 -10.24329 -10.14093 21.05731 0.9150034 1.889845 1.608667 0.2872337 5.147578 -1.302199 3.912578 27.66156 3.008267 -0.390505 -17.9726 8.910164 -6.616335 -20.0702 7.190727 89.40444 12.60922 -4.116704 -0 0 18.50666 -18.8715 4.3781 11.97615 4.916687 -12.20653 -1.958025 -100.3849 29.10927 26.0812 -0 0 5.229838 -3.610318 16.46206 15.26036
-712.9365 109.8548 -517.8053 11.87529 -0.03686249 97.59108 5.32106 16.84609 -1.990608 -0 22.1484 -0 -10.96173 -13.61896 -3.792455 -0.6248795 -8.470367 -10.84572 -0 11.99643 -0 -10.24329 -10.14093 21.05731 0.9150034 1.889845 1.608667 0.2872337 5.147578 -1.302199 3.912578 27.66156 3.008267 -0.390505 -17.9726 8.910164 -6.616335 -20.0702 7.190727 89.40444 12.60922 -4.116704 -0 0 18.50666 -18.8715 4.3781 11.97615 4.916687 -12.20653 -1.958025 -100.3849 29.10927 26.0812 -0 0 5.229838 -3.610318 16.46206 15.26036
-707.1141 109.8418 -518.6613 11.87444 -0.1477075 97.06394 5.32106 16.84609 -1.990608 -0 22.1484 -0 -10.96173 -13.61896 -3.792455 -0.6248795 -8.470367 -10.84572 -0 11.99643 -0 -10.24329 -10.14093 21.05731 0.9150034 1.889845 1.608667 0.2872337 5.147578 -1.302199 3.912578 27.66156 3.008267 -0.390505 -17.9726 8.910164 -6.616335 -20.0702 7.190727 89.40444 12.60922 -4.116704 -0 0 18.50666 -18.8715 4.3781 11.97615 4.916687 -12.20653 -1.958025 -100.3849 29.10927 26.0812 -0 0 5.229838 -3.610318 16.46206 15.26036
